<?xml version="1.0" encoding="utf-8"?>
<!-- Generator: Adobe Illustrator 12.0.1, SVG Export Plug-In . SVG Version: 6.00 Build 51448)  -->
<!DOCTYPE svg PUBLIC "-//W3C//DTD SVG 1.1//EN" "http://www.w3.org/Graphics/SVG/1.1/DTD/svg11.dtd" [
	<!ENTITY ns_svg "http://www.w3.org/2000/svg">
	<!ENTITY ns_xlink "http://www.w3.org/1999/xlink">
]>
<svg  version="1.1" id="Ebene_1" xmlns="&ns_svg;" xmlns:xlink="&ns_xlink;" width="77.399" height="77.399"
	 viewBox="0 12.75 77.399 69.55" overflow="visible" enable-background="new 0 12.75 77.399 69.55" xml:space="preserve">
<polygon fill-rule="evenodd" clip-rule="evenodd" fill="#4D4D4D" points="0,69.55 16.8,69.55 18,55.149 2.399,51.55 "/>
<polygon fill-rule="evenodd" clip-rule="evenodd" fill="#4D4D4D" points="3,49.149 18,52.75 21.601,40.149 9,33.55 "/>
<polygon fill-rule="evenodd" clip-rule="evenodd" fill="#4D4D4D" points="10.2,31.149 22.2,37.75 31.8,31.149 22.8,20.949 "/>
<polygon fill-rule="evenodd" clip-rule="evenodd" fill="#4D4D4D" points="77.399,69.55 60.601,69.55 59.399,55.149 75,51.55 "/>
<polygon fill-rule="evenodd" clip-rule="evenodd" fill="#4D4D4D" points="74.399,49.149 59.399,52.75 55.8,40.149 68.399,33.55 "/>
<polygon fill-rule="evenodd" clip-rule="evenodd" fill="#4D4D4D" points="67.2,31.149 55.2,37.75 45.601,31.149 54.601,20.949 "/>
<polygon fill-rule="evenodd" clip-rule="evenodd" fill="#4D4D4D" points="25.8,19.149 34.8,29.949 43.2,29.949 51,19.149 
	43.2,16.75 34.589,16.75 "/>
<polygon fill-rule="evenodd" clip-rule="evenodd" fill="#9C0000" points="0,69.55 16.8,69.55 18,55.149 2.399,51.55 "/>
<polygon fill-rule="evenodd" clip-rule="evenodd" fill="#B50808" points="3,49.149 18,52.75 21.601,40.149 9,33.55 "/>
<polygon fill-rule="evenodd" clip-rule="evenodd" fill="#C61818" points="10.2,31.149 22.2,37.75 31.8,31.149 22.8,20.949 "/>
<polygon fill-rule="evenodd" clip-rule="evenodd" fill="#9C0000" points="77.399,69.55 60.601,69.55 59.399,55.149 75,51.55 "/>
<polygon fill-rule="evenodd" clip-rule="evenodd" fill="#B50808" points="74.399,49.149 59.399,52.75 55.8,40.149 68.399,33.55 "/>
<polygon fill-rule="evenodd" clip-rule="evenodd" fill="#C61818" points="67.2,31.149 55.2,37.75 45.601,31.149 54.601,20.949 "/>
<polygon fill-rule="evenodd" clip-rule="evenodd" fill="#CE3129" points="25.8,19.149 34.8,29.949 43.2,29.949 51,19.149 
	43.2,16.75 34.589,16.75 "/>
</svg>
